<svg width="280" height="80" viewBox="0 0 280 80" fill="none" xmlns="http://www.w3.org/2000/svg">
<path d="M26.647 7.06885C11.934 7.06885 0 19.0029 0 33.7159C0 48.4289 10.876 59.2749 24.683 60.2868V51.5108C20.514 51.0568 17.115 49.3658 14.517 46.3898C11.45 42.8848 9.909 38.6099 9.909 33.5499C9.909 28.4889 11.495 24.3348 14.653 20.8008C17.81 17.2808 21.918 15.5139 26.964 15.5139C32.009 15.5139 36.057 17.1899 39.109 20.5589C42.16 23.9269 43.671 28.1118 43.671 33.1268L43.595 34.9548H14.758C14.985 38.5648 16.208 41.5259 18.444 43.8369C20.665 46.1479 23.565 47.2959 27.1 47.2959C29.698 47.2959 31.964 46.6308 33.912 45.3018C35.861 43.9728 37.236 42.2208 38.006 40.0448H43.051C42.009 43.4738 40.076 46.2688 37.251 48.4138C34.819 50.2718 31.934 51.3138 28.61 51.5708V60.2719C42.402 59.2599 53.293 47.7639 53.293 33.7009C53.293 19.6369 41.36 7.06885 26.647 7.06885Z" fill="white"/>
<path d="M26.964 19.8638C23.686 19.8638 20.967 20.9208 18.776 23.0208C16.601 25.1208 15.302 27.7948 14.894 31.0568H38.8221C38.5051 27.6738 37.281 24.9548 35.166 22.9298C33.051 20.8908 30.317 19.8788 26.949 19.8788L26.964 19.8638Z" fill="white"/>
<path d="M26.647 7.06885C11.934 7.06885 0 19.0029 0 33.7159C0 48.4289 10.876 59.2749 24.683 60.2868V51.5108C20.514 51.0568 17.115 49.3658 14.517 46.3898C11.45 42.8848 9.909 38.6099 9.909 33.5499C9.909 28.4889 11.495 24.3348 14.653 20.8008C17.81 17.2808 21.918 15.5139 26.964 15.5139C32.009 15.5139 36.057 17.1899 39.109 20.5589C42.16 23.9269 43.671 28.1118 43.671 33.1268L43.595 34.9548H14.758C14.985 38.5648 16.208 41.5259 18.444 43.8369C20.665 46.1479 23.565 47.2959 27.1 47.2959C29.698 47.2959 31.964 46.6308 33.912 45.3018C35.861 43.9728 37.236 42.2208 38.006 40.0448H43.051C42.009 43.4738 40.076 46.2688 37.251 48.4138C34.819 50.2718 31.934 51.3138 28.61 51.5708V60.2719C42.402 59.2599 53.293 47.7639 53.293 33.7009C53.293 19.6369 41.36 7.06885 26.647 7.06885Z" fill="white"/>
<path d="M26.964 19.8638C23.686 19.8638 20.967 20.9208 18.776 23.0208C16.601 25.1208 15.302 27.7948 14.894 31.0568H38.8221C38.5051 27.6738 37.281 24.9548 35.166 22.9298C33.051 20.8908 30.317 19.8788 26.949 19.8788L26.964 19.8638Z" fill="white"/>
<path d="M65.7467 46.4349C62.6047 42.9454 60.9128 38.3986 61.0035 33.7007C60.9128 29.0028 62.6198 24.4409 65.7467 20.9364C68.8735 17.3714 73.4204 15.4077 78.1485 15.5738C82.1364 15.4077 86.0488 16.7521 89.085 19.3352C91.8645 21.7672 93.7376 25.0451 94.4174 28.6705H89.4929C88.8887 26.1478 87.4687 23.8971 85.4596 22.2506C83.3751 20.6494 80.7769 19.8185 78.1485 19.9092C74.7648 19.7883 71.517 21.2234 69.2965 23.7762C66.9702 26.5406 65.7618 30.0753 65.9128 33.7007C65.7769 37.2959 66.9853 40.8004 69.2965 43.5497C71.5019 46.1176 74.7648 47.5376 78.1485 47.4167C80.7769 47.5074 83.3751 46.6765 85.4596 45.0753C87.4687 43.4288 88.8887 41.1781 89.4929 38.6554H94.4174C93.7376 42.2808 91.8645 45.5738 89.085 47.9907C86.0488 50.5738 82.1364 51.9333 78.1485 51.7672C73.4204 51.9333 68.8735 49.9696 65.7467 46.4349Z" fill="white"/>
<path d="M107.877 50.9516H103.028V16.3746H107.877V50.9516ZM105.49 7.80968C104.553 7.85499 103.647 7.52267 102.967 6.88823C102.318 6.25379 101.97 5.37765 102.016 4.47131C101.985 3.54986 102.333 2.65862 102.967 1.99397C103.632 1.32932 104.553 0.966774 105.49 1.0121C106.426 0.98188 107.318 1.34442 107.982 1.99397C108.647 2.64352 108.994 3.54986 108.979 4.47131C109.009 5.37765 108.647 6.25379 107.997 6.88823C107.318 7.50756 106.426 7.83989 105.505 7.80968H105.49Z" fill="white"/>
<path d="M133.979 46.3899V50.7404C132.771 51.0123 131.532 51.118 130.293 51.0727C124.281 51.0727 121.275 47.9307 121.275 41.6316V20.4383H114.644V16.3597H121.26V6.51074H126.124V16.3597H134.115V20.4383H126.124V41.2993C126.124 44.9247 127.725 46.7373 130.913 46.7373L133.994 46.405L133.979 46.3899Z" fill="white"/>
<path d="M145.671 64.9395L151.593 50.876L137.061 16.3594H142.318L154.025 45.0603L166.094 16.3594H171.215L150.581 65.0603L145.656 64.9244L145.671 64.9395Z" fill="white"/>
<path d="M177.469 46.4349C174.327 42.9454 172.635 38.3986 172.725 33.7007C172.635 29.0028 174.342 24.4409 177.469 20.9364C180.596 17.3714 185.142 15.4077 189.87 15.5738C193.858 15.4077 197.771 16.7521 200.807 19.3352C203.587 21.7672 205.46 25.0451 206.139 28.6705H201.215C200.611 26.1478 199.191 23.8971 197.182 22.2506C195.097 20.6494 192.499 19.8185 189.87 19.9092C186.487 19.7883 183.239 21.2234 181.019 23.7762C178.692 26.5406 177.484 30.0753 177.635 33.7007C177.499 37.2959 178.707 40.8004 181.019 43.5497C183.224 46.1176 186.487 47.5376 189.87 47.4167C192.499 47.5074 195.097 46.6765 197.182 45.0753C199.191 43.4288 200.611 41.1781 201.215 38.6554H206.139C205.46 42.2808 203.587 45.5738 200.807 47.9907C197.771 50.5738 193.858 51.9333 189.87 51.7672C185.142 51.9333 180.596 49.9696 177.469 46.4349Z" fill="white"/>
<path d="M214.75 50.9517H219.599V0H214.75V50.9517Z" fill="white"/>
<path d="M236.411 50.9516H231.562V16.3746H236.411V50.9516ZM234.025 7.80968C233.088 7.85499 232.182 7.52267 231.502 6.88823C230.853 6.25379 230.505 5.37765 230.55 4.47131C230.52 3.54986 230.868 2.65862 231.502 1.99397C232.167 1.32932 233.088 0.966774 234.025 1.0121C234.961 0.98188 235.853 1.34442 236.517 1.99397C237.182 2.64352 237.529 3.54986 237.514 4.47131C237.544 5.37765 237.182 6.25379 236.517 6.88823C235.837 7.50756 234.946 7.83989 234.025 7.80968Z" fill="white"/>
<path d="M250.52 46.4349C247.378 42.9454 245.686 38.3986 245.777 33.7007C245.686 29.0028 247.393 24.4409 250.52 20.9364C253.647 17.3714 258.194 15.4077 262.922 15.5738C266.91 15.4077 270.822 16.7521 273.859 19.3352C276.638 21.7672 278.511 25.0451 279.191 28.6705H274.266C273.662 26.1478 272.242 23.8971 270.233 22.2506C268.149 20.6494 265.55 19.8185 262.922 19.9092C259.538 19.7883 256.291 21.2234 254.07 23.7762C251.744 26.5406 250.535 30.0753 250.686 33.7007C250.55 37.2959 251.759 40.8004 254.07 43.5497C256.275 46.1176 259.538 47.5376 262.922 47.4167C265.55 47.5074 268.149 46.6765 270.233 45.0753C272.242 43.4288 273.662 41.1781 274.266 38.6554H279.191C278.511 42.2808 276.638 45.5738 273.859 47.9907C270.822 50.5738 266.91 51.9333 262.922 51.7672C258.194 51.9333 253.647 49.9696 250.52 46.4349Z" fill="white"/>
<path d="M278.277 73.1933C278.156 72.9667 278.05 72.7703 277.854 72.574C277.703 72.3776 277.461 72.2567 277.234 72.151C277.008 72.0453 276.736 72 276.464 72C276.192 72 275.92 72.0453 275.694 72.151C275.467 72.2567 275.271 72.3776 275.074 72.574C274.878 72.725 274.757 72.9667 274.651 73.1933C274.546 73.4199 274.5 73.6918 274.5 73.9637C274.5 74.2356 274.576 74.4622 274.651 74.7341C274.772 74.9607 274.878 75.157 275.074 75.3534C275.225 75.5498 275.467 75.6706 275.694 75.7764C275.92 75.8821 276.192 75.9274 276.464 75.9274C276.736 75.9274 277.008 75.8821 277.234 75.7764C277.461 75.6706 277.657 75.5498 277.854 75.3534C278.05 75.2024 278.171 74.9607 278.277 74.7341C278.383 74.5075 278.428 74.2356 278.428 73.9637C278.428 73.6918 278.383 73.4199 278.277 73.1933Z" fill="white"/>
<path d="M270.78 66.0182C270.463 65.1722 270.01 64.4321 269.42 63.858C268.831 63.284 268.152 62.8611 267.336 62.4985C266.52 62.1511 265.644 62 264.632 62C263.62 62 262.698 62.1964 261.898 62.4985C261.082 62.8158 260.402 63.2689 259.813 63.858C259.224 64.4472 258.771 65.1722 258.454 66.0182C258.136 66.8641 258 67.8309 258 68.8732C258 69.9155 258.152 70.8822 258.454 71.7281C258.771 72.5741 259.224 73.2689 259.813 73.8883C260.402 74.5076 261.052 74.9306 261.898 75.278C262.744 75.6254 263.635 75.7765 264.632 75.7765C265.629 75.7765 266.52 75.6254 267.336 75.278C268.152 74.9306 268.831 74.5076 269.42 73.8883C270.01 73.2991 270.463 72.5741 270.78 71.7281C271.097 70.8822 271.233 69.9155 271.233 68.8732C271.233 67.8309 271.082 66.8641 270.78 66.0182ZM267.925 68.8732C267.925 70.2931 267.653 71.4109 267.109 72.1511C266.565 72.8762 265.75 73.2689 264.647 73.2689C263.544 73.2689 262.683 72.9215 262.139 72.1813C261.596 71.4109 261.324 70.3233 261.324 68.9034C261.324 67.4834 261.596 66.3958 262.139 65.6254C262.683 64.855 263.529 64.4623 264.647 64.4623C265.765 64.4623 266.581 64.855 267.109 65.5801C267.638 66.3052 267.925 67.4381 267.925 68.858V68.8732Z" fill="white"/>
<path d="M253.288 72.136C253.092 72.136 252.895 72.2115 252.744 72.3323C252.593 72.4532 252.397 72.6042 252.155 72.7553C251.929 72.9064 251.657 73.0725 251.34 73.1783C251.022 73.284 250.615 73.3746 250.101 73.3746C249.587 73.3746 249.134 73.2538 248.711 73.0574C248.288 72.861 247.941 72.6042 247.669 72.2115C247.397 71.8641 247.17 71.3656 247.019 70.8218C246.868 70.278 246.793 69.6284 246.793 68.9335C246.793 68.2387 246.868 67.6193 246.989 67.0755C247.11 66.5317 247.337 66.0786 247.608 65.6858C247.926 65.2931 248.258 64.9909 248.696 64.7946C249.119 64.5982 249.587 64.4773 250.161 64.4773C250.615 64.4773 250.977 64.5227 251.279 64.6284C251.581 64.7341 251.823 64.855 252.05 64.9758C252.276 65.0967 252.442 65.2024 252.639 65.3233C252.835 65.4441 252.986 65.4743 253.137 65.4743C253.288 65.4743 253.454 65.429 253.53 65.3535C253.605 65.3082 253.726 65.2024 253.802 65.0816L254.648 63.8882C254.028 63.2689 253.334 62.8459 252.608 62.4985C251.883 62.1511 250.992 62 249.98 62C248.968 62 248.016 62.1964 247.201 62.5438C246.385 62.8912 245.705 63.3595 245.161 63.9638C244.618 64.5529 244.195 65.278 243.923 66.1239C243.651 66.9698 243.5 67.8912 243.5 68.858C243.5 69.9758 243.621 70.9426 243.953 71.7885C244.285 72.6344 244.723 73.3746 245.267 73.9486C245.856 74.5378 246.46 74.9909 247.201 75.3082C247.895 75.6254 248.696 75.7613 249.512 75.7613C250.01 75.7613 250.479 75.716 250.932 75.6405C251.385 75.565 251.853 75.4441 252.321 75.2931C252.775 75.0967 253.213 74.8701 253.636 74.5982C254.059 74.3263 254.451 73.9789 254.799 73.5559L253.877 72.3928C253.757 72.1964 253.56 72.0755 253.288 72.0755H253.318L253.288 72.136Z" fill="white"/>
<path d="M239.459 56.5741C239.263 56.423 239.066 56.2568 238.809 56.1511C238.553 56.0454 238.266 56 237.994 56C237.722 56 237.45 56.0454 237.223 56.1511C236.951 56.2719 236.77 56.3777 236.574 56.5741C236.423 56.7704 236.257 56.9668 236.151 57.2236C236.03 57.4955 236 57.7674 236 58.0393C236 58.3112 236.045 58.5831 236.151 58.8097C236.226 59.0816 236.377 59.2629 236.574 59.4593C236.77 59.6103 236.997 59.7765 237.223 59.8822C237.45 59.988 237.722 60.0333 237.994 60.0333C238.266 60.0333 238.538 59.988 238.809 59.8822C239.036 59.8067 239.263 59.6556 239.459 59.4593C239.655 59.2629 239.806 59.0363 239.912 58.8097C240.018 58.5831 240.063 58.3112 240.063 58.0393C240.063 57.7674 240.018 57.4955 239.912 57.2236C239.791 56.9517 239.64 56.7704 239.459 56.5741Z" fill="white"/>
<path d="M236.408 75.3203H239.655V61.9366H236.408V75.3203Z" fill="white"/>
<path d="M232.702 56H229.5V75.3656H232.702V56Z" fill="white"/>
<path d="M225.919 65.5167C225.692 64.701 225.329 64.0212 224.922 63.4321C224.499 62.843 223.955 62.4351 223.335 62.1179C222.716 61.8007 222.021 61.6647 221.251 61.6647C220.405 61.6647 219.665 61.8158 219.015 62.1632C218.366 62.5106 217.777 62.9336 217.248 63.5227H217.203V56H214V75.3656H216.13C216.326 75.3656 216.523 75.3203 216.629 75.2146C216.749 75.0937 216.855 74.9426 216.9 74.7161L217.052 73.8248L217.746 74.5197C217.973 74.7463 218.245 74.9124 218.517 75.0635C218.789 75.2145 219.106 75.3354 219.438 75.4109C219.755 75.4865 220.133 75.5318 220.556 75.5318C221.447 75.5318 222.218 75.3354 222.913 74.988C223.607 74.6405 224.227 74.142 224.725 73.5227C225.224 72.9034 225.616 72.133 225.888 71.2417C226.16 70.3505 226.281 69.3535 226.281 68.2659C226.281 67.1783 226.16 66.3324 225.934 65.5318L225.919 65.5167ZM223.033 68.2961C223.033 69.142 222.958 69.8369 222.807 70.426C222.656 71.0152 222.414 71.4683 222.157 71.846C221.9 72.2236 221.538 72.4955 221.16 72.6919C220.737 72.8883 220.314 72.9638 219.801 72.9638C219.348 72.9638 218.879 72.8883 218.441 72.6919C218.018 72.5408 217.595 72.1934 217.248 71.7704H217.293V65.7584C217.716 65.2599 218.139 64.8369 218.607 64.565C219.061 64.2931 219.604 64.142 220.224 64.142C221.115 64.142 221.81 64.4593 222.308 65.1088C222.807 65.7584 223.033 66.846 223.033 68.3112V68.2961Z" fill="white"/>
<path d="M207.959 71.6525C207.536 72.1057 207.068 72.4229 206.569 72.6948C206.071 72.9667 205.527 73.0876 204.983 73.0876C204.213 73.0876 203.669 72.8912 203.292 72.438C202.899 72.0151 202.702 71.3504 202.702 70.5498V62.0604H199.5V70.5498C199.5 71.2749 199.621 71.9698 199.817 72.5891C200.014 73.2084 200.27 73.7522 200.663 74.2054C201.056 74.6586 201.509 75.0211 202.083 75.2477C202.627 75.5196 203.276 75.6405 204.017 75.6405C204.908 75.6405 205.678 75.4894 206.328 75.142C206.977 74.7945 207.597 74.3263 208.14 73.7825L208.367 74.8701C208.488 75.2628 208.76 75.4592 209.183 75.4592H211.147V62H207.944V71.6828L207.959 71.6525Z" fill="white"/>
<path d="M195.978 65.8973C195.752 65.0513 195.435 64.3565 194.982 63.7674C194.528 63.1782 194.015 62.7704 193.395 62.4532C192.776 62.1359 192.127 62 191.386 62C190.465 62 189.649 62.1964 188.954 62.5891C188.259 62.9819 187.64 63.4803 187.096 64.0846L186.779 62.7704C186.658 62.3776 186.386 62.1812 185.963 62.1812H184V79.9305H187.202V74.4471C187.625 74.8701 188.093 75.1722 188.622 75.4139C189.166 75.6405 189.815 75.7613 190.556 75.7613C191.447 75.7613 192.247 75.5649 192.957 75.2175C193.652 74.8701 194.272 74.3716 194.77 73.7522C195.269 73.1329 195.661 72.3927 195.933 71.5619C196.205 70.716 196.326 69.7945 196.326 68.7825C196.326 67.6948 196.205 66.7432 195.978 65.8822V65.8973ZM193.003 68.8429C193.003 69.6133 192.882 70.2628 192.776 70.8519C192.67 71.4411 192.429 71.8942 192.157 72.2719C191.885 72.6495 191.537 72.9214 191.16 73.1178C190.767 73.3142 190.344 73.3897 189.846 73.3897C189.347 73.3897 188.879 73.3142 188.456 73.1178C188.033 72.9667 187.61 72.6193 187.262 72.1964V66.1843C187.655 65.6858 188.108 65.2628 188.577 64.9909C189.03 64.719 189.619 64.568 190.269 64.568C190.691 64.568 191.084 64.6435 191.432 64.7945C191.779 64.9456 192.051 65.1873 192.278 65.5196C192.504 65.8519 192.701 66.29 192.821 66.8338C192.942 67.4229 193.018 68.0725 193.018 68.8429H193.003Z" fill="white"/>
<path d="M180.533 69.0695C180.216 68.7522 179.883 68.571 179.491 68.3746C179.098 68.2235 178.72 68.0574 178.297 67.9214C177.874 67.7704 177.482 67.6495 177.104 67.5287C176.726 67.4078 176.379 67.3021 176.062 67.1359C175.805 67.0302 175.593 66.8942 175.427 66.7281C175.261 66.5619 175.08 66.2296 175.065 66.003C175.034 65.5347 175.231 65.1571 175.593 64.8701C175.986 64.5982 176.485 64.4773 177.089 64.4773C177.512 64.4773 177.859 64.5226 178.176 64.5982C178.494 64.719 178.766 64.7945 178.992 64.9154C179.219 65.0362 179.415 65.142 179.612 65.2326C179.808 65.3232 179.959 65.3534 180.11 65.3534C180.231 65.3534 180.382 65.3534 180.457 65.2779C180.533 65.2024 180.654 65.1269 180.729 64.9607L181.454 63.6465C180.956 63.148 180.337 62.7552 179.566 62.4531C178.841 62.1359 177.98 62 177.059 62C176.213 62 175.473 62.1208 174.868 62.3474C174.264 62.574 173.705 62.8459 173.282 63.2386C172.859 63.6314 172.557 64.0543 172.315 64.5528C172.119 65.0513 171.998 65.5951 171.998 66.1389C171.998 66.7281 172.074 67.2265 172.27 67.6344C172.467 68.0272 172.693 68.4048 172.995 68.6767C173.312 68.9486 173.645 69.1752 174.038 69.3716C174.43 69.5679 174.808 69.719 175.231 69.8701C175.624 70.0211 176.047 70.142 176.424 70.2628C176.817 70.3837 177.149 70.4894 177.467 70.6556C177.784 70.8217 178.01 71.003 178.192 71.1994C178.388 71.3957 178.463 71.6525 178.463 71.9698C178.463 72.1963 178.418 72.3927 178.343 72.5891C178.267 72.7855 178.146 72.9365 177.95 73.0876C177.754 73.2386 177.527 73.3595 177.255 73.435C176.983 73.5559 176.666 73.5861 176.288 73.5861C175.835 73.5861 175.397 73.5105 175.095 73.435C174.778 73.3595 174.506 73.2084 174.279 73.0876C174.053 72.9667 173.856 72.861 173.66 72.7401C173.463 72.6193 173.267 72.5891 173.071 72.5891C172.874 72.5891 172.678 72.6344 172.572 72.7099C172.421 72.7855 172.3 72.9063 172.225 73.0574L171.5 74.296C171.726 74.5226 172.044 74.7492 172.391 74.9456C172.738 75.1722 173.116 75.3383 173.509 75.4894C173.932 75.6404 174.355 75.7613 174.778 75.8368C175.201 75.9123 175.669 75.9577 176.137 75.9577C177.028 75.9577 177.799 75.8368 178.448 75.6102C179.098 75.3837 179.642 75.0664 180.11 74.6888C180.563 74.296 180.926 73.8429 181.152 73.2991C181.379 72.7552 181.5 72.1812 181.5 71.5317C181.5 70.9879 181.424 70.5347 181.228 70.142C181.031 69.7492 180.805 69.4169 180.503 69.145H180.548L180.533 69.0695Z" fill="white"/>
<path d="M166.752 72.0756C166.556 72.0756 166.329 72.1511 166.133 72.2719C165.937 72.3928 165.68 72.4985 165.408 72.6647C165.091 72.7855 164.789 72.9366 164.411 73.0574C164.033 73.1783 163.595 73.2538 163.051 73.2538C162.508 73.2538 162.054 73.1783 161.632 73.0272C161.209 72.8762 160.816 72.6043 160.514 72.3021C160.166 71.9849 159.925 71.5771 159.743 71.0635C159.592 70.565 159.426 69.9759 159.396 69.2961H167.659C167.976 69.2961 168.157 69.1753 168.278 69.0242C168.399 68.8731 168.429 68.571 168.429 68.0574C168.429 67.0907 168.308 66.1994 168.006 65.4744C167.734 64.7493 167.311 64.0846 166.813 63.5861C166.269 63.0423 165.65 62.6647 164.955 62.3928C164.26 62.1209 163.49 62 162.644 62C161.647 62 160.755 62.1964 159.94 62.5438C159.169 62.8913 158.474 63.3898 157.931 63.9638C157.387 64.5529 156.964 65.2327 156.662 66.0484C156.39 66.8641 156.239 67.71 156.239 68.6315C156.239 69.7946 156.39 70.8218 156.737 71.713C157.085 72.6043 157.553 73.3293 158.127 73.9487C158.716 74.5378 159.396 74.991 160.212 75.3082C161.027 75.6254 161.873 75.7614 162.795 75.7614C163.293 75.7614 163.761 75.716 164.26 75.6405C164.758 75.565 165.257 75.4441 165.725 75.2931C166.224 75.0967 166.692 74.8701 167.115 74.5982C167.538 74.3263 167.961 73.9789 168.308 73.5559L167.387 72.3928C167.236 72.1964 167.039 72.0756 166.767 72.0756H166.752ZM160.423 65.0514C160.967 64.5076 161.692 64.2357 162.613 64.2357C163.112 64.2357 163.535 64.3112 163.882 64.4623C164.23 64.6133 164.532 64.855 164.774 65.1118C165.015 65.3686 165.196 65.7009 165.317 66.0786C165.438 66.4562 165.514 66.849 165.514 67.2719H159.381C159.532 66.3052 159.879 65.5801 160.423 65.0363V65.0514Z" fill="white"/>
</svg>
