<svg width="102" height="29" viewBox="0 0 102 29" fill="none" xmlns="http://www.w3.org/2000/svg">
<path d="M19.0764 12.2472C19.0764 17.5126 14.809 21.7854 9.53818 21.7854C4.26736 21.7854 0 17.5126 0 12.2472C0 6.98174 4.26736 2.70898 9.53818 2.70898C14.8036 2.70898 19.0764 6.97634 19.0764 12.2472Z" fill="#80BA27"/>
<path d="M8.83154 22.0279H10.245V18.1489H8.83154V22.0279Z" fill="white"/>
<path d="M9.67311 18.667C8.80453 18.6832 7.94136 18.5214 7.1375 18.1977C6.38761 17.8847 5.72403 17.3992 5.19536 16.7842C4.65586 16.1746 4.23503 15.4625 3.95989 14.6964C3.67936 13.8925 3.53911 13.0401 3.54989 12.1877C3.5445 11.3461 3.68478 10.5045 3.97611 9.71146C4.26743 8.94 4.699 8.23328 5.24928 7.62364C5.78878 7.01403 6.45236 6.5285 7.20225 6.20478C7.97911 5.8811 8.81532 5.71925 9.65693 5.73003C10.4931 5.71925 11.324 5.87032 12.0954 6.18321C12.8237 6.48532 13.4711 6.94928 13.9998 7.53732C14.5339 8.12539 14.9547 8.81592 15.2245 9.56582C15.505 10.3589 15.6453 11.1951 15.6345 12.0367L15.6075 12.6895H5.28168C5.31943 13.8764 5.78878 15.0039 6.59803 15.8671C7.41264 16.6979 8.53478 17.1457 9.70011 17.1025C10.5687 17.1187 11.4211 16.8705 12.1386 16.385C12.8184 15.9318 13.3309 15.2736 13.6006 14.5021H15.4079C15.0572 15.6998 14.3289 16.7464 13.3309 17.4963C12.2735 18.2786 10.9841 18.6832 9.67311 18.6509V18.667ZM9.64614 7.28917C8.55636 7.25678 7.50436 7.66682 6.71671 8.41671C5.92903 9.18278 5.43811 10.2024 5.32482 11.2922H13.8919C13.8272 10.1916 13.3632 9.15582 12.5864 8.37892C11.7879 7.63982 10.7305 7.246 9.64614 7.28917Z" fill="white"/>
<path d="M23.5057 16.7626C22.3835 15.5163 21.7793 13.8925 21.8117 12.2146C21.7793 10.5368 22.3889 8.90757 23.5057 7.65596C24.6224 6.38275 26.2463 5.68143 27.9349 5.74075C29.3591 5.68143 30.7564 6.16157 31.8408 7.08411C32.8334 7.95268 33.5024 9.12336 33.7452 10.4181H31.9864C31.7707 9.51718 31.2635 8.71336 30.546 8.12532C29.8015 7.55346 28.8736 7.25671 27.9349 7.28911C26.7264 7.24593 25.5665 7.75846 24.7734 8.67018C23.9426 9.65746 23.5111 10.9199 23.565 12.2146C23.5164 13.4986 23.948 14.7502 24.7734 15.7321C25.5611 16.6492 26.7264 17.1564 27.9349 17.1132C28.8736 17.1456 29.8015 16.8489 30.546 16.277C31.2635 15.689 31.7707 14.8851 31.9864 13.9842H33.7452C33.5024 15.279 32.8334 16.455 31.8408 17.3182C30.7564 18.2407 29.3591 18.7263 27.9349 18.667C26.2463 18.7263 24.6224 18.025 23.5057 16.7626Z" fill="#3D3D3B"/>
<path d="M38.5522 18.3755H36.8204V6.02655H38.5522V18.3755ZM37.6997 2.96764C37.365 2.98382 37.0415 2.86513 36.7986 2.63855C36.5668 2.41196 36.4425 2.09905 36.459 1.77536C36.4479 1.44627 36.5722 1.12797 36.7986 0.890598C37.0361 0.653223 37.365 0.523743 37.6997 0.53993C38.034 0.529138 38.3525 0.658615 38.5897 0.890598C38.8272 1.12258 38.9511 1.44627 38.9457 1.77536C38.9565 2.09905 38.8272 2.41196 38.595 2.63855C38.3525 2.85974 38.034 2.97843 37.705 2.96764H37.6997Z" fill="#3D3D3B"/>
<path d="M47.8744 16.7465V18.3002C47.4429 18.3973 47.0004 18.4351 46.5579 18.4189C44.4108 18.4189 43.3372 17.2967 43.3372 15.0471V7.47803H40.969V6.02138H43.3319V2.50391H45.069V6.02138H47.9229V7.47803H45.069V14.9284C45.069 16.2232 45.6408 16.8705 46.7793 16.8705L47.8797 16.7518L47.8744 16.7465Z" fill="#3D3D3B"/>
<path d="M52.05 23.371L54.165 18.3484L48.975 6.021H50.8525L55.0335 16.2713L59.3439 6.021H61.1728L53.8035 23.4142L52.0446 23.3656L52.05 23.371Z" fill="#3D3D3B"/>
<path d="M63.4064 16.7626C62.2843 15.5163 61.68 13.8925 61.7122 12.2146C61.68 10.5368 62.2897 8.90757 63.4064 7.65596C64.5232 6.38275 66.1468 5.68143 67.8354 5.74075C69.2597 5.68143 70.6572 6.16157 71.7414 7.08411C72.7343 7.95268 73.4032 9.12336 73.6457 10.4181H71.8872C71.6714 9.51718 71.1643 8.71336 70.4468 8.12532C69.7022 7.55346 68.7743 7.25671 67.8354 7.28911C66.6272 7.24593 65.4672 7.75846 64.6743 8.67018C63.8432 9.65746 63.4118 10.9199 63.4657 12.2146C63.4172 13.4986 63.8486 14.7502 64.6743 15.7321C65.4618 16.6492 66.6272 17.1564 67.8354 17.1132C68.7743 17.1456 69.7022 16.8489 70.4468 16.277C71.1643 15.689 71.6714 14.8851 71.8872 13.9842H73.6457C73.4032 15.279 72.7343 16.455 71.7414 17.3182C70.6572 18.2407 69.2597 18.7263 67.8354 18.667C66.1468 18.7263 64.5232 18.025 63.4064 16.7626Z" fill="#3D3D3B"/>
<path d="M76.7211 18.3757H78.4529V0.178711H76.7211V18.3757Z" fill="#3D3D3B"/>
<path d="M84.4571 18.3755H82.7254V6.02655H84.4571V18.3755ZM83.605 2.96764C83.2704 2.98382 82.9468 2.86513 82.7039 2.63855C82.4721 2.41196 82.3479 2.09905 82.3639 1.77536C82.3532 1.44627 82.4775 1.12797 82.7039 0.890598C82.9414 0.653223 83.2704 0.523743 83.605 0.53993C83.9393 0.529138 84.2579 0.658615 84.495 0.890598C84.7325 1.12258 84.8564 1.44627 84.8511 1.77536C84.8618 2.09905 84.7325 2.41196 84.495 2.63855C84.2521 2.85974 83.9339 2.97843 83.605 2.96764Z" fill="#3D3D3B"/>
<path d="M89.4961 16.7626C88.3739 15.5163 87.7696 13.8925 87.8021 12.2146C87.7696 10.5368 88.3793 8.90757 89.4961 7.65596C90.6129 6.38275 92.2368 5.68143 93.9254 5.74075C95.3497 5.68143 96.7468 6.16157 97.8314 7.08411C98.8239 7.95268 99.4929 9.12336 99.7357 10.4181H97.9768C97.7611 9.51718 97.2539 8.71336 96.5364 8.12532C95.7922 7.55346 94.8639 7.25671 93.9254 7.28911C92.7168 7.24593 91.5572 7.75846 90.7639 8.67018C89.9332 9.65746 89.5014 10.9199 89.5554 12.2146C89.5068 13.4986 89.9386 14.7502 90.7639 15.7321C91.5514 16.6492 92.7168 17.1564 93.9254 17.1132C94.8639 17.1456 95.7922 16.8489 96.5364 16.277C97.2539 15.689 97.7611 14.8851 97.9768 13.9842H99.7357C99.4929 15.279 98.8239 16.455 97.8314 17.3182C96.7468 18.2407 95.3497 18.7263 93.9254 18.667C92.2368 18.7263 90.6129 18.025 89.4961 16.7626Z" fill="#3D3D3B"/>
<path d="M90.1003 20.5283C90.0303 20.4743 89.96 20.415 89.8682 20.3772C89.7768 20.3395 89.6743 20.3232 89.5771 20.3232C89.48 20.3232 89.3828 20.3395 89.3018 20.3772C89.2046 20.4203 89.14 20.4581 89.07 20.5283C89.0161 20.5984 88.9568 20.6685 88.9189 20.7602C88.8757 20.8573 88.865 20.9545 88.865 21.0516C88.865 21.1487 88.8811 21.2458 88.9189 21.3267C88.9457 21.4238 88.9996 21.4886 89.07 21.5587C89.14 21.6126 89.2211 21.672 89.3018 21.7097C89.3828 21.7475 89.48 21.7637 89.5771 21.7637C89.6743 21.7637 89.7714 21.7475 89.8682 21.7097C89.9493 21.6828 90.0303 21.6288 90.1003 21.5587C90.1703 21.4886 90.2243 21.4076 90.2621 21.3267C90.3 21.2458 90.3161 21.1487 90.3161 21.0516C90.3161 20.9545 90.3 20.8573 90.2621 20.7602C90.2189 20.6631 90.165 20.5984 90.1003 20.5283Z" fill="#3D3D3B"/>
<path d="M66.6971 25.9822C66.6271 25.9822 66.5461 26.0092 66.4761 26.0523C66.4061 26.0955 66.3143 26.1333 66.2172 26.1926C66.1039 26.2358 65.9961 26.2897 65.8611 26.3329C65.7261 26.376 65.5696 26.403 65.3754 26.403C65.1814 26.403 65.0193 26.376 64.8686 26.3221C64.7175 26.2681 64.5772 26.171 64.4693 26.0631C64.345 25.9498 64.2589 25.8042 64.1939 25.6208C64.14 25.4427 64.0807 25.2323 64.07 24.9895H67.0211C67.1343 24.9895 67.1989 24.9464 67.2421 24.8924C67.2854 24.8385 67.2961 24.7306 67.2961 24.5471C67.2961 24.2019 67.2529 23.8836 67.145 23.6246C67.0479 23.3657 66.8968 23.1283 66.7189 22.9503C66.5246 22.756 66.3036 22.6212 66.0554 22.5241C65.8071 22.427 65.5321 22.3838 65.23 22.3838C64.8739 22.3838 64.5554 22.4539 64.2643 22.578C63.9889 22.7021 63.7407 22.8801 63.5468 23.0851C63.3525 23.2955 63.2014 23.5383 63.0936 23.8296C62.9964 24.121 62.9425 24.4231 62.9425 24.7522C62.9425 25.1676 62.9964 25.5344 63.1204 25.8527C63.2446 26.171 63.4118 26.43 63.6168 26.6512C63.8271 26.8616 64.07 27.0234 64.3614 27.1367C64.6525 27.25 64.9546 27.2986 65.2839 27.2986C65.4618 27.2986 65.6289 27.2824 65.8071 27.2554C65.985 27.2284 66.1632 27.1853 66.3304 27.1313C66.5086 27.0612 66.6757 26.9803 66.8268 26.8831C66.9779 26.786 67.1289 26.662 67.2529 26.5109L66.9239 26.0955C66.87 26.0254 66.7996 25.9822 66.7025 25.9822H66.6971ZM64.4368 23.4736C64.6311 23.2794 64.89 23.1823 65.2189 23.1823C65.3972 23.1823 65.5482 23.2092 65.6721 23.2632C65.7964 23.3171 65.9043 23.4034 65.9907 23.4951C66.0768 23.5869 66.1414 23.7055 66.1846 23.8404C66.2279 23.9753 66.255 24.1156 66.255 24.2666H64.0646C64.1186 23.9214 64.2425 23.6624 64.4368 23.4682V23.4736Z" fill="#3D3D3B"/>
<path d="M70.7596 24.8495C70.6464 24.7362 70.5275 24.6715 70.3875 24.6013C70.2471 24.5474 70.1121 24.4881 69.9611 24.4395C69.81 24.3856 69.67 24.3424 69.535 24.2992C69.4 24.2561 69.2761 24.2183 69.1629 24.159C69.0711 24.1212 68.9954 24.0726 68.9361 24.0133C68.8768 23.954 68.8121 23.8353 68.8068 23.7543C68.7957 23.5871 68.8661 23.4522 68.9954 23.3497C69.1357 23.2526 69.3139 23.2095 69.5296 23.2095C69.6807 23.2095 69.8046 23.2256 69.9179 23.2526C70.0314 23.2958 70.1286 23.3227 70.2093 23.3659C70.2904 23.4091 70.3604 23.4468 70.4307 23.4792C70.5007 23.5116 70.5546 23.5224 70.6086 23.5224C70.6518 23.5224 70.7057 23.5224 70.7325 23.4954C70.7596 23.4684 70.8029 23.4415 70.8296 23.3821L71.0886 22.9127C70.9107 22.7347 70.6896 22.5944 70.4143 22.4865C70.1554 22.3732 69.8479 22.3247 69.5189 22.3247C69.2168 22.3247 68.9525 22.3678 68.7364 22.4488C68.5207 22.5297 68.3211 22.6268 68.17 22.7671C68.0189 22.9073 67.9111 23.0584 67.8246 23.2364C67.7546 23.4145 67.7114 23.6087 67.7114 23.8029C67.7114 24.0133 67.7386 24.1913 67.8086 24.337C67.8789 24.4773 67.9596 24.6121 68.0675 24.7092C68.1807 24.8063 68.2996 24.8873 68.44 24.9574C68.58 25.0275 68.715 25.0815 68.8661 25.1355C69.0064 25.1894 69.1575 25.2326 69.2921 25.2757C69.4325 25.3189 69.5511 25.3566 69.6646 25.416C69.7779 25.4753 69.8586 25.5401 69.9236 25.6102C69.9936 25.6803 70.0204 25.772 70.0204 25.8853C70.0204 25.9662 70.0043 26.0364 69.9775 26.1065C69.9504 26.1767 69.9071 26.2306 69.8371 26.2846C69.7671 26.3385 69.6861 26.3817 69.5889 26.4086C69.4918 26.4518 69.3786 26.4626 69.2436 26.4626C69.0818 26.4626 68.9254 26.4356 68.8175 26.4086C68.7043 26.3817 68.6071 26.3277 68.5261 26.2846C68.4454 26.2414 68.375 26.2036 68.305 26.1605C68.2346 26.1173 68.1646 26.1065 68.0946 26.1065C68.0243 26.1065 67.9543 26.1227 67.9164 26.1497C67.8625 26.1767 67.8193 26.2198 67.7925 26.2738L67.5336 26.7161C67.6143 26.7971 67.7279 26.878 67.8518 26.9481C67.9757 27.0291 68.1107 27.0884 68.2511 27.1423C68.4021 27.1963 68.5532 27.2395 68.7043 27.2664C68.8554 27.2934 69.0225 27.3096 69.1896 27.3096C69.5079 27.3096 69.7832 27.2664 70.015 27.1855C70.2471 27.1046 70.4414 26.9913 70.6086 26.8564C70.7704 26.7161 70.9 26.5543 70.9807 26.3601C71.0618 26.1658 71.105 25.9608 71.105 25.7289C71.105 25.5347 71.0779 25.3728 71.0079 25.2326C70.9375 25.0923 70.8568 24.9736 70.7489 24.8765H70.765L70.7596 24.8495Z" fill="#3D3D3B"/>
<path d="M76.0357 23.7327C75.955 23.4306 75.8417 23.1824 75.68 22.972C75.5178 22.7616 75.3346 22.616 75.1132 22.5027C74.8921 22.3894 74.6603 22.3408 74.3957 22.3408C74.0667 22.3408 73.7753 22.411 73.5271 22.5512C73.2789 22.6915 73.0578 22.8695 72.8635 23.0853L72.7503 22.616C72.7071 22.4757 72.61 22.4055 72.4589 22.4055H71.7578V28.7446H72.9014V26.7862C73.0525 26.9373 73.2196 27.0452 73.4085 27.1315C73.6028 27.2124 73.8346 27.2556 74.0992 27.2556C74.4175 27.2556 74.7032 27.1854 74.9567 27.0614C75.205 26.9373 75.4264 26.7592 75.6042 26.538C75.7825 26.3169 75.9225 26.0525 76.0196 25.7558C76.1167 25.4537 76.16 25.1246 76.16 24.7631C76.16 24.3747 76.1167 24.0348 76.0357 23.7273V23.7327ZM74.9732 24.7847C74.9732 25.0599 74.93 25.2918 74.8921 25.5022C74.8542 25.7126 74.7682 25.8745 74.671 26.0094C74.5739 26.1442 74.4496 26.2413 74.315 26.3115C74.1746 26.3816 74.0235 26.4086 73.8457 26.4086C73.6675 26.4086 73.5003 26.3816 73.3492 26.3115C73.1982 26.2575 73.0471 26.1334 72.9228 25.9824V23.8352C73.0632 23.6572 73.225 23.5061 73.3925 23.409C73.5542 23.3119 73.7646 23.258 73.9967 23.258C74.1475 23.258 74.2878 23.2849 74.4121 23.3389C74.536 23.3928 74.6332 23.4791 74.7142 23.5978C74.795 23.7165 74.8653 23.873 74.9082 24.0672C74.9514 24.2776 74.9785 24.5096 74.9785 24.7847H74.9732Z" fill="#3D3D3B"/>
<path d="M79.7961 25.8746C79.645 26.0364 79.4779 26.1497 79.2997 26.2468C79.1218 26.3439 78.9275 26.3871 78.7332 26.3871C78.4582 26.3871 78.264 26.317 78.1293 26.1551C77.989 26.0041 77.9186 25.7667 77.9186 25.4807V22.4488H76.775V25.4807C76.775 25.7397 76.8182 25.9879 76.8882 26.2091C76.9586 26.4302 77.05 26.6245 77.1904 26.7863C77.3307 26.9482 77.4925 27.0776 77.6975 27.1586C77.8918 27.2557 78.1236 27.2989 78.3882 27.2989C78.7065 27.2989 78.9815 27.2449 79.2136 27.1208C79.4454 26.9967 79.6668 26.8295 79.8607 26.6353L79.9418 27.0237C79.985 27.164 80.0822 27.2341 80.2332 27.2341H80.9347V22.4272H79.7907V25.8854L79.7961 25.8746Z" fill="#3D3D3B"/>
<path d="M86.0921 23.7489C86.011 23.4576 85.8814 23.2148 85.736 23.0044C85.585 22.794 85.3907 22.6483 85.1693 22.5351C84.9482 22.4218 84.7 22.3732 84.425 22.3732C84.1228 22.3732 83.8585 22.4272 83.6264 22.5512C83.3946 22.6753 83.1843 22.8264 82.9953 23.0368H82.9793V20.3501H81.8353V27.2664H82.596C82.666 27.2664 82.7364 27.2502 82.7743 27.2125C82.8171 27.1693 82.855 27.1153 82.871 27.0344L82.9253 26.7161L83.1732 26.9643C83.2543 27.0452 83.3514 27.1045 83.4485 27.1585C83.5457 27.2124 83.6589 27.2556 83.7775 27.2826C83.8907 27.3096 84.0257 27.3257 84.1768 27.3257C84.495 27.3257 84.7703 27.2556 85.0185 27.1315C85.2664 27.0074 85.4878 26.8294 85.6657 26.6082C85.8439 26.387 85.9839 26.1119 86.081 25.7936C86.1782 25.4753 86.2214 25.1192 86.2214 24.7308C86.2214 24.3423 86.1782 24.0402 86.0975 23.7543L86.0921 23.7489ZM85.0614 24.7416C85.0614 25.0437 85.0346 25.2918 84.9807 25.5022C84.9268 25.7127 84.8403 25.8745 84.7485 26.0094C84.6568 26.1442 84.5275 26.2413 84.3925 26.3115C84.2414 26.3816 84.0903 26.4086 83.9071 26.4086C83.7453 26.4086 83.5778 26.3816 83.4214 26.3115C83.2703 26.2575 83.1193 26.1335 82.9953 25.9824H83.0114V23.8352C83.1625 23.6572 83.3135 23.5061 83.4807 23.409C83.6428 23.3119 83.8368 23.258 84.0582 23.258C84.3764 23.258 84.6246 23.3713 84.8025 23.6032C84.9807 23.8352 85.0614 24.2237 85.0614 24.747V24.7416Z" fill="#3D3D3B"/>
<path d="M88.0611 20.3071H86.9175V27.2234H88.0611V20.3071Z" fill="#3D3D3B"/>
<path d="M89.0107 27.2233H90.1704V22.4434H89.0107V27.2233Z" fill="#3D3D3B"/>
<path d="M94.3407 25.9554C94.2707 25.9554 94.2003 25.9824 94.1464 26.0256C94.0925 26.0687 94.0225 26.1227 93.936 26.1766C93.8553 26.2306 93.7582 26.2899 93.645 26.3277C93.5314 26.3654 93.386 26.3978 93.2025 26.3978C93.0189 26.3978 92.8571 26.3547 92.706 26.2845C92.555 26.2144 92.431 26.1227 92.3339 25.9824C92.2368 25.8583 92.1557 25.6803 92.1018 25.4861C92.0478 25.2919 92.021 25.0599 92.021 24.8117C92.021 24.5636 92.0478 24.3423 92.091 24.1481C92.1343 23.9539 92.2153 23.7921 92.3121 23.6518C92.4257 23.5116 92.5443 23.4036 92.7007 23.3335C92.8518 23.2634 93.0189 23.2202 93.2239 23.2202C93.386 23.2202 93.5153 23.2364 93.6232 23.2742C93.731 23.3119 93.8175 23.3551 93.8985 23.3982C93.9793 23.4414 94.0385 23.4792 94.1089 23.5223C94.1789 23.5655 94.2328 23.5763 94.2868 23.5763C94.3407 23.5763 94.4 23.5601 94.4271 23.5331C94.4539 23.5169 94.4971 23.4792 94.5243 23.436L94.8264 23.0098C94.605 22.7886 94.3571 22.6376 94.0978 22.5135C93.8389 22.3894 93.5207 22.3354 93.1593 22.3354C92.7978 22.3354 92.4578 22.4056 92.1668 22.5297C91.8753 22.6537 91.6325 22.821 91.4382 23.0368C91.2443 23.2472 91.0932 23.5062 90.996 23.8083C90.8989 24.1104 90.845 24.4394 90.845 24.7847C90.845 25.1839 90.8882 25.5292 91.0068 25.8313C91.1253 26.1334 91.2818 26.3978 91.476 26.6028C91.6864 26.8132 91.9021 26.9751 92.1668 27.0884C92.4146 27.2017 92.7007 27.2502 92.9921 27.2502C93.17 27.2502 93.3375 27.234 93.4993 27.2071C93.661 27.1801 93.8282 27.1369 93.9953 27.083C94.1575 27.0128 94.3139 26.9319 94.465 26.8348C94.616 26.7377 94.756 26.6136 94.8803 26.4626L94.551 26.0472C94.5082 25.977 94.4378 25.9338 94.3407 25.9338H94.3514L94.3407 25.9554Z" fill="#3D3D3B"/>
<path d="M99.5793 23.8027C99.4661 23.5006 99.3043 23.2363 99.0936 23.0312C98.8832 22.8262 98.6407 22.6752 98.3493 22.5457C98.0579 22.4216 97.745 22.3677 97.3836 22.3677C97.0222 22.3677 96.6929 22.4378 96.4072 22.5457C96.1157 22.659 95.8729 22.8209 95.6625 23.0312C95.4522 23.2417 95.2904 23.5006 95.1772 23.8027C95.0636 24.1049 95.015 24.4501 95.015 24.8224C95.015 25.1946 95.0693 25.5399 95.1772 25.842C95.2904 26.1441 95.4522 26.3923 95.6625 26.6135C95.8729 26.8347 96.105 26.9857 96.4072 27.1098C96.7093 27.2339 97.0275 27.2879 97.3836 27.2879C97.7397 27.2879 98.0579 27.2339 98.3493 27.1098C98.6407 26.9857 98.8832 26.8347 99.0936 26.6135C99.3043 26.4031 99.4661 26.1441 99.5793 25.842C99.6925 25.5399 99.7411 25.1946 99.7411 24.8224C99.7411 24.4501 99.6872 24.1049 99.5793 23.8027ZM98.5597 24.8224C98.5597 25.3295 98.4625 25.7287 98.2682 25.9931C98.0739 26.252 97.7829 26.3923 97.3889 26.3923C96.995 26.3923 96.6875 26.2682 96.4932 26.0039C96.2993 25.7287 96.2022 25.3403 96.2022 24.8332C96.2022 24.326 96.2993 23.9376 96.4932 23.6625C96.6875 23.3873 96.9897 23.2471 97.3889 23.2471C97.7882 23.2471 98.0797 23.3873 98.2682 23.6463C98.4572 23.9052 98.5597 24.3099 98.5597 24.817V24.8224Z" fill="#3D3D3B"/>
<path d="M101.559 26.3114C101.516 26.2305 101.478 26.1604 101.408 26.0903C101.354 26.0201 101.268 25.9769 101.187 25.9392C101.106 25.9014 101.009 25.8853 100.912 25.8853C100.815 25.8853 100.717 25.9014 100.637 25.9392C100.556 25.9769 100.486 26.0201 100.415 26.0903C100.345 26.1442 100.302 26.2305 100.264 26.3114C100.227 26.3924 100.21 26.4895 100.21 26.5866C100.21 26.6837 100.237 26.7646 100.264 26.8617C100.307 26.9426 100.345 27.0128 100.415 27.0829C100.469 27.153 100.556 27.1962 100.637 27.234C100.717 27.2717 100.815 27.2879 100.912 27.2879C101.009 27.2879 101.106 27.2717 101.187 27.234C101.268 27.1962 101.338 27.153 101.408 27.0829C101.478 27.029 101.521 26.9426 101.559 26.8617C101.597 26.7808 101.613 26.6837 101.613 26.5866C101.613 26.4895 101.597 26.3924 101.559 26.3114Z" fill="#3D3D3B"/>
</svg>
