<svg width="102" height="29" viewBox="0 0 102 29" fill="none" xmlns="http://www.w3.org/2000/svg">
<path d="M9.51678 2.77441C4.26213 2.77441 0 7.03656 0 12.2912C0 17.5458 3.88428 21.4194 8.81535 21.7808V18.6466C7.32642 18.4844 6.1125 17.8805 5.18464 16.8176C4.08928 15.5658 3.53893 14.0391 3.53893 12.2319C3.53893 10.4244 4.10536 8.94084 5.23322 7.6787C6.36072 6.42156 7.82785 5.79049 9.63 5.79049C11.4318 5.79049 12.8775 6.38906 13.9675 7.59227C15.0571 8.79513 15.5968 10.2898 15.5968 12.0808L15.5696 12.7337H5.27071C5.35178 14.023 5.78856 15.0805 6.58713 15.9058C7.38035 16.7312 8.41606 17.1412 9.67856 17.1412C10.6064 17.1412 11.4157 16.9037 12.1114 16.4291C12.8075 15.9544 13.2986 15.3287 13.5736 14.5516H15.3754C15.0032 15.7762 14.3128 16.7744 13.3039 17.5405C12.4353 18.2041 11.405 18.5762 10.2179 18.668V21.7755C15.1436 21.4141 19.0332 17.3083 19.0332 12.2858C19.0332 7.26299 14.7714 2.77441 9.51678 2.77441Z" fill="white"/>
<path d="M9.63004 7.34424C8.45933 7.34424 7.48826 7.72174 6.70576 8.47174C5.92897 9.22174 5.46505 10.1767 5.31934 11.3417H13.8651C13.7518 10.1335 13.3147 9.16245 12.5593 8.43924C11.804 7.71102 10.8275 7.3496 9.62468 7.3496L9.63004 7.34424Z" fill="white"/>
<path d="M9.51678 2.77441C4.26213 2.77441 0 7.03656 0 12.2912C0 17.5458 3.88428 21.4194 8.81535 21.7808V18.6466C7.32642 18.4844 6.1125 17.8805 5.18464 16.8176C4.08928 15.5658 3.53893 14.0391 3.53893 12.2319C3.53893 10.4244 4.10536 8.94084 5.23322 7.6787C6.36072 6.42156 7.82785 5.79049 9.63 5.79049C11.4318 5.79049 12.8775 6.38906 13.9675 7.59227C15.0571 8.79513 15.5968 10.2898 15.5968 12.0808L15.5696 12.7337H5.27071C5.35178 14.023 5.78856 15.0805 6.58713 15.9058C7.38035 16.7312 8.41606 17.1412 9.67856 17.1412C10.6064 17.1412 11.4157 16.9037 12.1114 16.4291C12.8075 15.9544 13.2986 15.3287 13.5736 14.5516H15.3754C15.0032 15.7762 14.3128 16.7744 13.3039 17.5405C12.4353 18.2041 11.405 18.5762 10.2179 18.668V21.7755C15.1436 21.4141 19.0332 17.3083 19.0332 12.2858C19.0332 7.26299 14.7714 2.77441 9.51678 2.77441Z" fill="white"/>
<path d="M9.63004 7.34424C8.45933 7.34424 7.48826 7.72174 6.70576 8.47174C5.92897 9.22174 5.46505 10.1767 5.31934 11.3417H13.8651C13.7518 10.1335 13.3147 9.16245 12.5593 8.43924C11.804 7.71102 10.8275 7.3496 9.62468 7.3496L9.63004 7.34424Z" fill="white"/>
<path d="M23.4571 16.7959C22.3296 15.528 21.7632 14.0177 21.7632 12.2588C21.7632 10.5002 22.3296 8.98411 23.4571 7.70554C24.5846 6.43233 26.0575 5.7959 27.8753 5.7959C29.4671 5.7959 30.7671 6.24339 31.7707 7.13911C32.7796 8.03482 33.4107 9.1459 33.6696 10.4677H31.9164C31.6575 9.49661 31.1771 8.7359 30.4814 8.18018C29.7853 7.62483 28.9168 7.34411 27.8753 7.34411C26.5753 7.34411 25.5232 7.80268 24.7196 8.72518C23.9157 9.64233 23.5164 10.8238 23.5164 12.2588C23.5164 13.6941 23.9157 14.8484 24.7196 15.7709C25.5232 16.6934 26.5753 17.152 27.8753 17.152C28.9168 17.152 29.7853 16.8716 30.4814 16.3159C31.1771 15.7602 31.6575 14.9941 31.9164 14.0284H33.6696C33.4107 15.3502 32.7739 16.4616 31.7707 17.357C30.7618 18.2527 29.4671 18.7005 27.8753 18.7005C26.0575 18.7005 24.5846 18.0691 23.4571 16.8013V16.7959Z" fill="white"/>
<path d="M37.6185 3.03383C37.2464 3.03383 36.9442 2.92562 36.7178 2.70455C36.491 2.48883 36.3778 2.1974 36.3778 1.84669C36.3778 1.49597 36.491 1.19955 36.7178 0.962046C36.9442 0.729903 37.2464 0.611328 37.6185 0.611328C37.991 0.611328 38.2714 0.729903 38.5089 0.962046C38.746 1.19419 38.8596 1.49061 38.8596 1.84669C38.8596 2.20276 38.7407 2.48883 38.5089 2.70455C38.2714 2.92026 37.9746 3.03383 37.6185 3.03383ZM36.7392 18.4092V6.08169H38.471V18.4038H36.7392V18.4092Z" fill="white"/>
<path d="M47.7718 16.7855V18.3338C47.4808 18.4148 47.0436 18.4527 46.4558 18.4527C44.314 18.4527 43.2401 17.3305 43.2401 15.0863V7.5334H40.8772V6.08197H43.2401V2.56982H44.9665V6.08197H47.8151V7.5334H44.9665V14.9673C44.9665 16.257 45.5329 16.9041 46.6715 16.9041L47.7665 16.7855H47.7718Z" fill="white"/>
<path d="M51.9368 23.3941L54.0461 18.3819L48.8672 6.08691H50.7447L54.9204 16.3105L59.22 6.08691H61.049L53.6958 23.4426L51.9422 23.3941H51.9368Z" fill="white"/>
<path d="M63.2714 16.7959C62.1439 15.528 61.5775 14.0177 61.5775 12.2588C61.5775 10.5002 62.1439 8.98411 63.2714 7.70554C64.3989 6.43233 65.8718 5.7959 67.69 5.7959C69.2814 5.7959 70.5814 6.24339 71.585 7.13911C72.5939 8.03482 73.225 9.1459 73.4839 10.4677H71.7307C71.4718 9.49661 70.9918 8.7359 70.2957 8.18018C69.5997 7.62483 68.7311 7.34411 67.69 7.34411C66.3897 7.34411 65.3379 7.80268 64.5339 8.72518C63.73 9.64233 63.3307 10.8238 63.3307 12.2588C63.3307 13.6941 63.73 14.8484 64.5339 15.7709C65.3379 16.6934 66.3897 17.152 67.69 17.152C68.7311 17.152 69.5997 16.8716 70.2957 16.3159C70.9918 15.7602 71.4718 14.9941 71.7307 14.0284H73.4839C73.225 15.3502 72.5886 16.4616 71.585 17.357C70.5761 18.2527 69.2814 18.7005 67.69 18.7005C65.8718 18.7005 64.3989 18.0691 63.2714 16.8013V16.7959Z" fill="white"/>
<path d="M78.2854 18.4093H76.5536V0.25H78.2854V18.4093Z" fill="white"/>
<path d="M83.4267 3.03383C83.0546 3.03383 82.7525 2.92562 82.526 2.70455C82.2993 2.48883 82.186 2.1974 82.186 1.84669C82.186 1.49597 82.2993 1.19955 82.526 0.962046C82.7525 0.729903 83.0546 0.611328 83.4267 0.611328C83.7989 0.611328 84.0796 0.729903 84.3171 0.962046C84.5543 1.19419 84.6675 1.49061 84.6675 1.84669C84.6675 2.20276 84.5489 2.48883 84.3171 2.70455C84.0796 2.92026 83.7828 3.03383 83.4267 3.03383ZM82.5475 18.4092V6.08169H84.2793V18.4038H82.5475V18.4092Z" fill="white"/>
<path d="M89.3072 16.7959C88.1797 15.528 87.6133 14.0177 87.6133 12.2588C87.6133 10.5002 88.1797 8.98411 89.3072 7.70554C90.4351 6.43233 91.9076 5.7959 93.7258 5.7959C95.3172 5.7959 96.6176 6.24339 97.6208 7.13911C98.6297 8.03482 99.2611 9.1459 99.5201 10.4677H97.7665C97.5076 9.49661 97.0276 8.7359 96.3315 8.18018C95.6358 7.62483 94.7668 7.34411 93.7258 7.34411C92.4258 7.34411 91.3736 7.80268 90.5697 8.72518C89.7658 9.64233 89.3668 10.8238 89.3668 12.2588C89.3668 13.6941 89.7658 14.8484 90.5697 15.7709C91.3736 16.6934 92.4258 17.152 93.7258 17.152C94.7668 17.152 95.6358 16.8716 96.3315 16.3159C97.0276 15.7602 97.5076 14.9941 97.7665 14.0284H99.5201C99.2611 15.3502 98.6244 16.4616 97.6208 17.357C96.6122 18.2527 95.3172 18.7005 93.7258 18.7005C91.9076 18.7005 90.4351 18.0691 89.3072 16.8013V16.7959Z" fill="white"/>
<path d="M23.4571 16.7959C22.3296 15.528 21.7632 14.0177 21.7632 12.2588C21.7632 10.5002 22.3296 8.98411 23.4571 7.70554C24.5846 6.43233 26.0575 5.7959 27.8753 5.7959C29.4671 5.7959 30.7671 6.24339 31.7707 7.13911C32.7796 8.03482 33.4107 9.1459 33.6696 10.4677H31.9164C31.6575 9.49661 31.1771 8.7359 30.4814 8.18018C29.7853 7.62483 28.9168 7.34411 27.8753 7.34411C26.5753 7.34411 25.5232 7.80268 24.7196 8.72518C23.9157 9.64233 23.5164 10.8238 23.5164 12.2588C23.5164 13.6941 23.9157 14.8484 24.7196 15.7709C25.5232 16.6934 26.5753 17.152 27.8753 17.152C28.9168 17.152 29.7853 16.8716 30.4814 16.3159C31.1771 15.7602 31.6575 14.9941 31.9164 14.0284H33.6696C33.4107 15.3502 32.7739 16.4616 31.7707 17.357C30.7618 18.2527 29.4671 18.7005 27.8753 18.7005C26.0575 18.7005 24.5846 18.0691 23.4571 16.8013V16.7959Z" fill="white"/>
<path d="M37.6185 3.03383C37.2464 3.03383 36.9442 2.92562 36.7178 2.70455C36.491 2.48883 36.3778 2.1974 36.3778 1.84669C36.3778 1.49597 36.491 1.19955 36.7178 0.962046C36.9442 0.729903 37.2464 0.611328 37.6185 0.611328C37.991 0.611328 38.2714 0.729903 38.5089 0.962046C38.746 1.19419 38.8596 1.49061 38.8596 1.84669C38.8596 2.20276 38.7407 2.48883 38.5089 2.70455C38.2714 2.92026 37.9746 3.03383 37.6185 3.03383ZM36.7392 18.4092V6.08169H38.471V18.4038H36.7392V18.4092Z" fill="white"/>
<path d="M47.7718 16.7855V18.3338C47.4808 18.4148 47.0436 18.4527 46.4558 18.4527C44.314 18.4527 43.2401 17.3305 43.2401 15.0863V7.5334H40.8772V6.08197H43.2401V2.56982H44.9665V6.08197H47.8151V7.5334H44.9665V14.9673C44.9665 16.257 45.5329 16.9041 46.6715 16.9041L47.7665 16.7855H47.7718Z" fill="white"/>
<path d="M51.9368 23.3941L54.0461 18.3819L48.8672 6.08691H50.7447L54.9204 16.3105L59.22 6.08691H61.049L53.6958 23.4426L51.9422 23.3941H51.9368Z" fill="white"/>
<path d="M63.2714 16.7959C62.1439 15.528 61.5775 14.0177 61.5775 12.2588C61.5775 10.5002 62.1439 8.98411 63.2714 7.70554C64.3989 6.43233 65.8718 5.7959 67.69 5.7959C69.2814 5.7959 70.5814 6.24339 71.585 7.13911C72.5939 8.03482 73.225 9.1459 73.4839 10.4677H71.7307C71.4718 9.49661 70.9918 8.7359 70.2957 8.18018C69.5997 7.62483 68.7311 7.34411 67.69 7.34411C66.3897 7.34411 65.3379 7.80268 64.5339 8.72518C63.73 9.64233 63.3307 10.8238 63.3307 12.2588C63.3307 13.6941 63.73 14.8484 64.5339 15.7709C65.3379 16.6934 66.3897 17.152 67.69 17.152C68.7311 17.152 69.5997 16.8716 70.2957 16.3159C70.9918 15.7602 71.4718 14.9941 71.7307 14.0284H73.4839C73.225 15.3502 72.5886 16.4616 71.585 17.357C70.5761 18.2527 69.2814 18.7005 67.69 18.7005C65.8718 18.7005 64.3989 18.0691 63.2714 16.8013V16.7959Z" fill="white"/>
<path d="M78.2854 18.4093H76.5536V0.25H78.2854V18.4093Z" fill="white"/>
<path d="M83.4267 3.03383C83.0546 3.03383 82.7525 2.92562 82.526 2.70455C82.2993 2.48883 82.186 2.1974 82.186 1.84669C82.186 1.49597 82.2993 1.19955 82.526 0.962046C82.7525 0.729903 83.0546 0.611328 83.4267 0.611328C83.7989 0.611328 84.0796 0.729903 84.3171 0.962046C84.5543 1.19419 84.6675 1.49061 84.6675 1.84669C84.6675 2.20276 84.5489 2.48883 84.3171 2.70455C84.0796 2.92026 83.7828 3.03383 83.4267 3.03383ZM82.5475 18.4092V6.08169H84.2793V18.4038H82.5475V18.4092Z" fill="white"/>
<path d="M89.3072 16.7959C88.1797 15.528 87.6133 14.0177 87.6133 12.2588C87.6133 10.5002 88.1797 8.98411 89.3072 7.70554C90.4351 6.43233 91.9076 5.7959 93.7258 5.7959C95.3172 5.7959 96.6176 6.24339 97.6208 7.13911C98.6297 8.03482 99.2611 9.1459 99.5201 10.4677H97.7665C97.5076 9.49661 97.0276 8.7359 96.3315 8.18018C95.6358 7.62483 94.7668 7.34411 93.7258 7.34411C92.4258 7.34411 91.3736 7.80268 90.5697 8.72518C89.7658 9.64233 89.3668 10.8238 89.3668 12.2588C89.3668 13.6941 89.7658 14.8484 90.5697 15.7709C91.3736 16.6934 92.4258 17.152 93.7258 17.152C94.7668 17.152 95.6358 16.8716 96.3315 16.3159C97.0276 15.7602 97.5076 14.9941 97.7665 14.0284H99.5201C99.2611 15.3502 98.6244 16.4616 97.6208 17.357C96.6122 18.2527 95.3172 18.7005 93.7258 18.7005C91.9076 18.7005 90.4351 18.0691 89.3072 16.8013V16.7959Z" fill="white"/>
<path d="M66.6971 26.0377C66.6271 26.0377 66.5461 26.0648 66.4761 26.108C66.4061 26.1512 66.3143 26.1887 66.2172 26.2484C66.1039 26.2912 65.9961 26.3452 65.8611 26.3884C65.7261 26.4316 65.5697 26.4587 65.3754 26.4587C65.1814 26.4587 65.0193 26.4316 64.8682 26.3777C64.7171 26.3237 64.5771 26.2266 64.4693 26.1187C64.345 26.0055 64.2586 25.8598 64.1939 25.6762C64.14 25.4984 64.0807 25.288 64.07 25.0452H67.0211C67.1343 25.0452 67.1989 25.002 67.2421 24.948C67.2854 24.8941 67.2961 24.7862 67.2961 24.6027C67.2961 24.2577 67.2529 23.9391 67.145 23.6802C67.0479 23.4212 66.8968 23.1841 66.7189 23.0059C66.5246 22.8116 66.3036 22.6769 66.0554 22.5798C65.8071 22.4827 65.5318 22.4395 65.2296 22.4395C64.8739 22.4395 64.5554 22.5094 64.2643 22.6337C63.9889 22.7577 63.7407 22.9359 63.5464 23.1409C63.3525 23.3512 63.2014 23.5941 63.0936 23.8852C62.9964 24.1766 62.9425 24.4787 62.9425 24.8077C62.9425 25.2234 62.9964 25.5902 63.1204 25.9084C63.2446 26.2266 63.4118 26.4855 63.6168 26.7069C63.8271 26.9173 64.07 27.0791 64.3611 27.1923C64.6525 27.3055 64.9546 27.3541 65.2839 27.3541C65.4618 27.3541 65.6289 27.338 65.8071 27.3109C65.985 27.2841 66.1632 27.2409 66.3303 27.187C66.5086 27.117 66.6757 27.0359 66.8268 26.9387C66.9779 26.8416 67.1289 26.7177 67.2529 26.5666L66.9239 26.1512C66.87 26.0809 66.7997 26.0377 66.7025 26.0377H66.6971ZM64.4368 23.5291C64.6311 23.3348 64.89 23.238 65.2189 23.238C65.3971 23.238 65.5482 23.2648 65.6721 23.3187C65.7964 23.3727 65.9043 23.4591 65.9904 23.5509C66.0768 23.6427 66.1414 23.7612 66.1846 23.8959C66.2279 24.0309 66.255 24.1712 66.255 24.3223H64.0646C64.1186 23.9769 64.2425 23.718 64.4368 23.5237V23.5291Z" fill="white"/>
<path d="M70.7596 24.9045C70.6464 24.7913 70.5275 24.7267 70.3875 24.6563C70.2472 24.6024 70.1121 24.5431 69.9611 24.4945C69.81 24.4406 69.67 24.3974 69.535 24.3542C69.4 24.3113 69.2761 24.2735 69.1629 24.2142C69.0711 24.1763 68.9954 24.1277 68.9361 24.0685C68.8768 24.0092 68.8121 23.8902 68.8068 23.8095C68.7957 23.642 68.8661 23.5074 68.9954 23.4049C69.1357 23.3077 69.3139 23.2645 69.5296 23.2645C69.6807 23.2645 69.8046 23.2806 69.9179 23.3077C70.0314 23.351 70.1282 23.3777 70.2093 23.421C70.2904 23.4642 70.3604 23.502 70.4304 23.5342C70.5007 23.5667 70.5546 23.5774 70.6086 23.5774C70.6518 23.5774 70.7057 23.5774 70.7325 23.5506C70.7597 23.5235 70.8029 23.4967 70.8296 23.437L71.0886 22.9677C70.9107 22.7899 70.6893 22.6495 70.4143 22.5417C70.1553 22.4285 69.8479 22.3799 69.5189 22.3799C69.2168 22.3799 68.9521 22.4231 68.7364 22.5038C68.5207 22.5849 68.3211 22.682 68.17 22.822C68.0189 22.9624 67.9111 23.1135 67.8246 23.2917C67.7546 23.4695 67.7114 23.6638 67.7114 23.8581C67.7114 24.0685 67.7386 24.2463 67.8086 24.392C67.8786 24.5324 67.9596 24.6674 68.0675 24.7642C68.1807 24.8613 68.2996 24.9424 68.4396 25.0124C68.58 25.0827 68.715 25.1367 68.8661 25.1906C69.0061 25.2445 69.1571 25.2877 69.2921 25.331C69.4325 25.3738 69.5511 25.4117 69.6643 25.471C69.7779 25.5302 69.8586 25.5952 69.9232 25.6652C69.9936 25.7356 70.0204 25.827 70.0204 25.9406C70.0204 26.0213 70.0043 26.0913 69.9775 26.1617C69.9504 26.2317 69.9071 26.2856 69.8371 26.3395C69.7668 26.3935 69.6861 26.4367 69.5889 26.4638C69.4918 26.507 69.3786 26.5177 69.2436 26.5177C69.0818 26.5177 68.9254 26.4906 68.8175 26.4638C68.7043 26.4367 68.6071 26.3827 68.5261 26.3395C68.445 26.2967 68.375 26.2588 68.305 26.2156C68.2347 26.1724 68.1646 26.1617 68.0946 26.1617C68.0243 26.1617 67.9543 26.1777 67.9164 26.2049C67.8625 26.2317 67.8193 26.2749 67.7925 26.3288L67.5336 26.7713C67.6143 26.852 67.7275 26.9331 67.8518 27.0031C67.9757 27.0842 68.1107 27.1435 68.2511 27.1974C68.4022 27.2513 68.5532 27.2945 68.7043 27.3217C68.8554 27.3485 69.0225 27.3645 69.1896 27.3645C69.5079 27.3645 69.7832 27.3217 70.015 27.2406C70.2471 27.1595 70.4414 27.0463 70.6086 26.9117C70.7703 26.7713 70.9 26.6095 70.9807 26.4152C71.0618 26.221 71.105 26.016 71.105 25.7838C71.105 25.5899 71.0779 25.4277 71.0079 25.2877C70.9375 25.1474 70.8568 25.0288 70.7489 24.9317H70.765L70.7596 24.9045Z" fill="white"/>
<path d="M76.0357 23.7932C75.955 23.4914 75.8417 23.2432 75.6796 23.0328C75.5178 22.8221 75.3346 22.6767 75.1132 22.5632C74.8921 22.4499 74.66 22.4014 74.3957 22.4014C74.0667 22.4014 73.7753 22.4717 73.5271 22.6117C73.2789 22.7521 73.0578 22.9303 72.8635 23.146L72.7503 22.6767C72.7071 22.5364 72.61 22.466 72.4589 22.466H71.7578V28.8053H72.9014V26.8467C73.0525 26.9978 73.2196 27.1057 73.4085 27.1921C73.6028 27.2732 73.8346 27.3164 74.0989 27.3164C74.4175 27.3164 74.7032 27.246 74.9568 27.1221C75.205 26.9978 75.426 26.8199 75.6042 26.5985C75.7821 26.3774 75.9224 26.1132 76.0196 25.8164C76.1167 25.5142 76.16 25.1853 76.16 24.8239C76.16 24.4353 76.1168 24.0953 76.0357 23.7878V23.7932ZM74.9732 24.8399C74.9732 25.1149 74.93 25.3471 74.8921 25.5574C74.8542 25.7678 74.7682 25.9296 74.671 26.0646C74.5739 26.1996 74.4496 26.2967 74.3149 26.3667C74.1746 26.4367 74.0235 26.4639 73.8453 26.4639C73.6675 26.4639 73.5003 26.4367 73.3492 26.3667C73.1982 26.3128 73.0471 26.1885 72.9228 26.0374V23.8903C73.0632 23.7124 73.225 23.5614 73.3925 23.4642C73.5543 23.3671 73.7646 23.3132 73.9964 23.3132C74.1475 23.3132 74.2878 23.3403 74.4121 23.3942C74.536 23.4482 74.6332 23.5342 74.7139 23.6532C74.7949 23.7717 74.8649 23.9282 74.9082 24.1224C74.9514 24.3328 74.9785 24.5649 74.9785 24.8399H74.9732Z" fill="white"/>
<path d="M79.7961 25.9296C79.645 26.0917 79.4779 26.2049 79.2997 26.3021C79.1218 26.3992 78.9275 26.4421 78.7333 26.4421C78.4583 26.4421 78.264 26.3721 78.129 26.2103C77.989 26.0592 77.9186 25.8217 77.9186 25.536V22.5038H76.775V25.536C76.775 25.7949 76.8182 26.0431 76.8882 26.2642C76.9582 26.4853 77.05 26.6796 77.1904 26.8413C77.3307 27.0031 77.4925 27.1328 77.6975 27.2135C77.8918 27.3106 78.1236 27.3539 78.3879 27.3539C78.7065 27.3539 78.9815 27.2999 79.2136 27.176C79.4454 27.0517 79.6665 26.8846 79.8607 26.6903L79.9418 27.0788C79.985 27.2192 80.0822 27.2892 80.2333 27.2892H80.9343V22.4824H79.7907V25.9406L79.7961 25.9296Z" fill="white"/>
<path d="M86.0918 23.8042C86.0111 23.5128 85.8814 23.2699 85.7357 23.0596C85.5846 22.8492 85.3907 22.7035 85.1693 22.5903C84.9482 22.4771 84.7 22.4285 84.425 22.4285C84.1228 22.4285 83.8585 22.4824 83.6264 22.6063C83.3943 22.7306 83.1839 22.8817 82.9953 23.0921H82.9789V20.4053H81.8353V27.3217H82.596C82.666 27.3217 82.7364 27.3053 82.7739 27.2678C82.8171 27.2246 82.855 27.1706 82.8711 27.0896L82.925 26.7713L83.1732 27.0196C83.2543 27.1003 83.3514 27.1596 83.4486 27.2135C83.5453 27.2678 83.6589 27.3106 83.7775 27.3378C83.8907 27.3646 84.0257 27.381 84.1768 27.381C84.495 27.381 84.77 27.3106 85.0182 27.1867C85.2664 27.0628 85.4875 26.8846 85.6657 26.6635C85.8436 26.4421 85.9839 26.1671 86.081 25.8488C86.1782 25.5303 86.2214 25.1746 86.2214 24.786C86.2214 24.3974 86.1782 24.0953 86.0971 23.8096L86.0918 23.8042ZM85.0614 24.7967C85.0614 25.0988 85.0346 25.3471 84.9807 25.5574C84.9268 25.7678 84.8403 25.9296 84.7486 26.0646C84.6568 26.1996 84.5275 26.2963 84.3925 26.3667C84.2414 26.4367 84.0903 26.4638 83.9071 26.4638C83.745 26.4638 83.5778 26.4367 83.4214 26.3667C83.2703 26.3128 83.1193 26.1885 82.9953 26.0374H83.0114V23.8903C83.1625 23.7124 83.3135 23.5613 83.4807 23.4642C83.6425 23.3671 83.8368 23.3131 84.0578 23.3131C84.3764 23.3131 84.6246 23.4263 84.8025 23.6585C84.9807 23.8903 85.0614 24.2788 85.0614 24.8021V24.7967Z" fill="white"/>
<path d="M88.061 20.3623H86.9175V27.2787H88.061V20.3623Z" fill="white"/>
<path d="M90.1003 20.5834C90.03 20.5291 89.96 20.4698 89.8682 20.4323C89.7768 20.3945 89.6743 20.3784 89.5771 20.3784C89.48 20.3784 89.3828 20.3945 89.3018 20.4323C89.2046 20.4752 89.14 20.5131 89.07 20.5834C89.0161 20.6534 88.9564 20.7234 88.9189 20.8152C88.8757 20.9123 88.865 21.0095 88.865 21.1066C88.865 21.2038 88.8811 21.3009 88.9189 21.3816C88.9457 21.4788 88.9996 21.5434 89.07 21.6138C89.14 21.6677 89.221 21.727 89.3018 21.7648C89.3828 21.8023 89.48 21.8188 89.5771 21.8188C89.6743 21.8188 89.771 21.8023 89.8682 21.7648C89.9493 21.7377 90.03 21.6838 90.1003 21.6138C90.1703 21.5434 90.2243 21.4627 90.2621 21.3816C90.3 21.3009 90.3161 21.2038 90.3161 21.1066C90.3161 21.0095 90.3 20.9123 90.2621 20.8152C90.2189 20.7181 90.165 20.6534 90.1003 20.5834Z" fill="white"/>
<path d="M89.0107 27.2785H90.1704V22.4985H89.0107V27.2785Z" fill="white"/>
<path d="M94.3407 26.0106C94.2707 26.0106 94.2003 26.0374 94.1464 26.0806C94.0925 26.1238 94.0225 26.1778 93.936 26.2317C93.8553 26.2856 93.7582 26.3449 93.6446 26.3828C93.5314 26.4206 93.3857 26.4531 93.2025 26.4531C93.0189 26.4531 92.8571 26.4099 92.706 26.3396C92.555 26.2696 92.431 26.1778 92.3339 26.0374C92.2367 25.9135 92.1557 25.7356 92.1017 25.5413C92.0478 25.3471 92.021 25.1149 92.021 24.8671C92.021 24.6188 92.0478 24.3974 92.091 24.2035C92.1342 24.0092 92.215 23.8474 92.3121 23.707C92.4257 23.5667 92.5443 23.4588 92.7007 23.3888C92.8518 23.3185 93.0189 23.2753 93.2239 23.2753C93.3857 23.2753 93.5153 23.2917 93.6232 23.3292C93.731 23.3671 93.8175 23.4103 93.8982 23.4535C93.9792 23.4967 94.0385 23.5342 94.1089 23.5774C94.1789 23.6206 94.2328 23.6313 94.2867 23.6313C94.3407 23.6313 94.4 23.6153 94.4271 23.5881C94.4539 23.5721 94.4971 23.5342 94.5243 23.4913L94.8264 23.0649C94.605 22.8438 94.3567 22.6928 94.0978 22.5685C93.8389 22.4446 93.5207 22.3906 93.1592 22.3906C92.7978 22.3906 92.4578 22.4606 92.1668 22.5849C91.8753 22.7088 91.6325 22.8763 91.4382 23.092C91.2439 23.3024 91.0928 23.5613 90.996 23.8635C90.8989 24.1656 90.845 24.4946 90.845 24.8399C90.845 25.2392 90.8878 25.5846 91.0067 25.8867C91.1253 26.1885 91.2817 26.4531 91.476 26.6581C91.6864 26.8685 91.9021 27.0303 92.1668 27.1435C92.4146 27.2567 92.7007 27.3053 92.9921 27.3053C93.17 27.3053 93.3371 27.2892 93.4992 27.2621C93.661 27.2353 93.8282 27.1921 93.9953 27.1381C94.1575 27.0681 94.3139 26.9871 94.465 26.8899C94.616 26.7928 94.756 26.6688 94.8803 26.5178L94.551 26.1024C94.5078 26.032 94.4378 25.9892 94.3407 25.9892H94.3514L94.3407 26.0106Z" fill="white"/>
<path d="M99.5793 23.8637C99.4657 23.5616 99.3039 23.2973 99.0936 23.0923C98.8832 22.8873 98.6404 22.7362 98.3493 22.6066C98.0579 22.4826 97.745 22.4287 97.3836 22.4287C97.0222 22.4287 96.6929 22.4987 96.4072 22.6066C96.1157 22.7198 95.8729 22.8819 95.6625 23.0923C95.4522 23.3026 95.2904 23.5616 95.1768 23.8637C95.0636 24.1659 95.015 24.5112 95.015 24.8834C95.015 25.2555 95.0689 25.6009 95.1768 25.903C95.2904 26.2051 95.4522 26.4534 95.6625 26.6744C95.8729 26.8955 96.105 27.0466 96.4072 27.1709C96.7089 27.2948 97.0275 27.3487 97.3836 27.3487C97.7397 27.3487 98.0579 27.2948 98.3493 27.1709C98.6404 27.0466 98.8832 26.8955 99.0936 26.6744C99.3039 26.4641 99.4657 26.2051 99.5793 25.903C99.6925 25.6009 99.7411 25.2555 99.7411 24.8834C99.7411 24.5112 99.6872 24.1659 99.5793 23.8637ZM98.5597 24.8834C98.5597 25.3905 98.4625 25.7898 98.2682 26.0541C98.0739 26.313 97.7825 26.4534 97.389 26.4534C96.995 26.4534 96.6875 26.3291 96.4932 26.0648C96.299 25.7898 96.2022 25.4012 96.2022 24.8941C96.2022 24.3869 96.299 23.9984 96.4932 23.7234C96.6875 23.4484 96.9897 23.308 97.389 23.308C97.7882 23.308 98.0793 23.4483 98.2682 23.7073C98.4572 23.9662 98.5597 24.3708 98.5597 24.878V24.8834Z" fill="white"/>
<path d="M101.559 26.367C101.516 26.2859 101.478 26.2159 101.408 26.1459C101.354 26.0756 101.268 26.0323 101.187 25.9948C101.106 25.957 101.009 25.9409 100.912 25.9409C100.815 25.9409 100.717 25.957 100.636 25.9948C100.556 26.0323 100.486 26.0756 100.415 26.1459C100.345 26.1998 100.302 26.2859 100.264 26.367C100.226 26.4481 100.21 26.5448 100.21 26.642C100.21 26.7391 100.237 26.8202 100.264 26.9173C100.307 26.9981 100.345 27.0684 100.415 27.1384C100.469 27.2084 100.556 27.2516 100.636 27.2895C100.717 27.3273 100.815 27.3434 100.912 27.3434C101.009 27.3434 101.106 27.3273 101.187 27.2895C101.268 27.2516 101.338 27.2084 101.408 27.1384C101.478 27.0845 101.521 26.9981 101.559 26.9173C101.597 26.8363 101.613 26.7391 101.613 26.642C101.613 26.5448 101.597 26.4481 101.559 26.367Z" fill="white"/>
<path d="M66.6971 26.0377C66.6271 26.0377 66.5461 26.0648 66.4761 26.108C66.4061 26.1512 66.3143 26.1887 66.2172 26.2484C66.1039 26.2912 65.9961 26.3452 65.8611 26.3884C65.7261 26.4316 65.5697 26.4587 65.3754 26.4587C65.1814 26.4587 65.0193 26.4316 64.8682 26.3777C64.7171 26.3237 64.5771 26.2266 64.4693 26.1187C64.345 26.0055 64.2586 25.8598 64.1939 25.6762C64.14 25.4984 64.0807 25.288 64.07 25.0452H67.0211C67.1343 25.0452 67.1989 25.002 67.2421 24.948C67.2854 24.8941 67.2961 24.7862 67.2961 24.6027C67.2961 24.2577 67.2529 23.9391 67.145 23.6802C67.0479 23.4212 66.8968 23.1841 66.7189 23.0059C66.5246 22.8116 66.3036 22.6769 66.0554 22.5798C65.8071 22.4827 65.5318 22.4395 65.2296 22.4395C64.8739 22.4395 64.5554 22.5094 64.2643 22.6337C63.9889 22.7577 63.7407 22.9359 63.5464 23.1409C63.3525 23.3512 63.2014 23.5941 63.0936 23.8852C62.9964 24.1766 62.9425 24.4787 62.9425 24.8077C62.9425 25.2234 62.9964 25.5902 63.1204 25.9084C63.2446 26.2266 63.4118 26.4855 63.6168 26.7069C63.8271 26.9173 64.07 27.0791 64.3611 27.1923C64.6525 27.3055 64.9546 27.3541 65.2839 27.3541C65.4618 27.3541 65.6289 27.338 65.8071 27.3109C65.985 27.2841 66.1632 27.2409 66.3303 27.187C66.5086 27.117 66.6757 27.0359 66.8268 26.9387C66.9779 26.8416 67.1289 26.7177 67.2529 26.5666L66.9239 26.1512C66.87 26.0809 66.7997 26.0377 66.7025 26.0377H66.6971ZM64.4368 23.5291C64.6311 23.3348 64.89 23.238 65.2189 23.238C65.3971 23.238 65.5482 23.2648 65.6721 23.3187C65.7964 23.3727 65.9043 23.4591 65.9904 23.5509C66.0768 23.6427 66.1414 23.7612 66.1846 23.8959C66.2279 24.0309 66.255 24.1712 66.255 24.3223H64.0646C64.1186 23.9769 64.2425 23.718 64.4368 23.5237V23.5291Z" fill="white"/>
<path d="M70.7596 24.9045C70.6464 24.7913 70.5275 24.7267 70.3875 24.6563C70.2472 24.6024 70.1121 24.5431 69.9611 24.4945C69.81 24.4406 69.67 24.3974 69.535 24.3542C69.4 24.3113 69.2761 24.2735 69.1629 24.2142C69.0711 24.1763 68.9954 24.1277 68.9361 24.0685C68.8768 24.0092 68.8121 23.8902 68.8068 23.8095C68.7957 23.642 68.8661 23.5074 68.9954 23.4049C69.1357 23.3077 69.3139 23.2645 69.5296 23.2645C69.6807 23.2645 69.8046 23.2806 69.9179 23.3077C70.0314 23.351 70.1282 23.3777 70.2093 23.421C70.2904 23.4642 70.3604 23.502 70.4304 23.5342C70.5007 23.5667 70.5546 23.5774 70.6086 23.5774C70.6518 23.5774 70.7057 23.5774 70.7325 23.5506C70.7597 23.5235 70.8029 23.4967 70.8296 23.437L71.0886 22.9677C70.9107 22.7899 70.6893 22.6495 70.4143 22.5417C70.1553 22.4285 69.8479 22.3799 69.5189 22.3799C69.2168 22.3799 68.9521 22.4231 68.7364 22.5038C68.5207 22.5849 68.3211 22.682 68.17 22.822C68.0189 22.9624 67.9111 23.1135 67.8246 23.2917C67.7546 23.4695 67.7114 23.6638 67.7114 23.8581C67.7114 24.0685 67.7386 24.2463 67.8086 24.392C67.8786 24.5324 67.9596 24.6674 68.0675 24.7642C68.1807 24.8613 68.2996 24.9424 68.4396 25.0124C68.58 25.0827 68.715 25.1367 68.8661 25.1906C69.0061 25.2445 69.1571 25.2877 69.2921 25.331C69.4325 25.3738 69.5511 25.4117 69.6643 25.471C69.7779 25.5302 69.8586 25.5952 69.9232 25.6652C69.9936 25.7356 70.0204 25.827 70.0204 25.9406C70.0204 26.0213 70.0043 26.0913 69.9775 26.1617C69.9504 26.2317 69.9071 26.2856 69.8371 26.3395C69.7668 26.3935 69.6861 26.4367 69.5889 26.4638C69.4918 26.507 69.3786 26.5177 69.2436 26.5177C69.0818 26.5177 68.9254 26.4906 68.8175 26.4638C68.7043 26.4367 68.6071 26.3827 68.5261 26.3395C68.445 26.2967 68.375 26.2588 68.305 26.2156C68.2347 26.1724 68.1646 26.1617 68.0946 26.1617C68.0243 26.1617 67.9543 26.1777 67.9164 26.2049C67.8625 26.2317 67.8193 26.2749 67.7925 26.3288L67.5336 26.7713C67.6143 26.852 67.7275 26.9331 67.8518 27.0031C67.9757 27.0842 68.1107 27.1435 68.2511 27.1974C68.4022 27.2513 68.5532 27.2945 68.7043 27.3217C68.8554 27.3485 69.0225 27.3645 69.1896 27.3645C69.5079 27.3645 69.7832 27.3217 70.015 27.2406C70.2471 27.1595 70.4414 27.0463 70.6086 26.9117C70.7703 26.7713 70.9 26.6095 70.9807 26.4152C71.0618 26.221 71.105 26.016 71.105 25.7838C71.105 25.5899 71.0779 25.4277 71.0079 25.2877C70.9375 25.1474 70.8568 25.0288 70.7489 24.9317H70.765L70.7596 24.9045Z" fill="white"/>
<path d="M76.0357 23.7932C75.955 23.4914 75.8417 23.2432 75.6796 23.0328C75.5178 22.8221 75.3346 22.6767 75.1132 22.5632C74.8921 22.4499 74.66 22.4014 74.3957 22.4014C74.0667 22.4014 73.7753 22.4717 73.5271 22.6117C73.2789 22.7521 73.0578 22.9303 72.8635 23.146L72.7503 22.6767C72.7071 22.5364 72.61 22.466 72.4589 22.466H71.7578V28.8053H72.9014V26.8467C73.0525 26.9978 73.2196 27.1057 73.4085 27.1921C73.6028 27.2732 73.8346 27.3164 74.0989 27.3164C74.4175 27.3164 74.7032 27.246 74.9568 27.1221C75.205 26.9978 75.426 26.8199 75.6042 26.5985C75.7821 26.3774 75.9224 26.1132 76.0196 25.8164C76.1167 25.5142 76.16 25.1853 76.16 24.8239C76.16 24.4353 76.1168 24.0953 76.0357 23.7878V23.7932ZM74.9732 24.8399C74.9732 25.1149 74.93 25.3471 74.8921 25.5574C74.8542 25.7678 74.7682 25.9296 74.671 26.0646C74.5739 26.1996 74.4496 26.2967 74.3149 26.3667C74.1746 26.4367 74.0235 26.4639 73.8453 26.4639C73.6675 26.4639 73.5003 26.4367 73.3492 26.3667C73.1982 26.3128 73.0471 26.1885 72.9228 26.0374V23.8903C73.0632 23.7124 73.225 23.5614 73.3925 23.4642C73.5543 23.3671 73.7646 23.3132 73.9964 23.3132C74.1475 23.3132 74.2878 23.3403 74.4121 23.3942C74.536 23.4482 74.6332 23.5342 74.7139 23.6532C74.7949 23.7717 74.8649 23.9282 74.9082 24.1224C74.9514 24.3328 74.9785 24.5649 74.9785 24.8399H74.9732Z" fill="white"/>
<path d="M79.7961 25.9296C79.645 26.0917 79.4779 26.2049 79.2997 26.3021C79.1218 26.3992 78.9275 26.4421 78.7333 26.4421C78.4583 26.4421 78.264 26.3721 78.129 26.2103C77.989 26.0592 77.9186 25.8217 77.9186 25.536V22.5038H76.775V25.536C76.775 25.7949 76.8182 26.0431 76.8882 26.2642C76.9582 26.4853 77.05 26.6796 77.1904 26.8413C77.3307 27.0031 77.4925 27.1328 77.6975 27.2135C77.8918 27.3106 78.1236 27.3539 78.3879 27.3539C78.7065 27.3539 78.9815 27.2999 79.2136 27.176C79.4454 27.0517 79.6665 26.8846 79.8607 26.6903L79.9418 27.0788C79.985 27.2192 80.0822 27.2892 80.2333 27.2892H80.9343V22.4824H79.7907V25.9406L79.7961 25.9296Z" fill="white"/>
<path d="M86.0918 23.8042C86.0111 23.5128 85.8814 23.2699 85.7357 23.0596C85.5846 22.8492 85.3907 22.7035 85.1693 22.5903C84.9482 22.4771 84.7 22.4285 84.425 22.4285C84.1228 22.4285 83.8585 22.4824 83.6264 22.6063C83.3943 22.7306 83.1839 22.8817 82.9953 23.0921H82.9789V20.4053H81.8353V27.3217H82.596C82.666 27.3217 82.7364 27.3053 82.7739 27.2678C82.8171 27.2246 82.855 27.1706 82.8711 27.0896L82.925 26.7713L83.1732 27.0196C83.2543 27.1003 83.3514 27.1596 83.4486 27.2135C83.5453 27.2678 83.6589 27.3106 83.7775 27.3378C83.8907 27.3646 84.0257 27.381 84.1768 27.381C84.495 27.381 84.77 27.3106 85.0182 27.1867C85.2664 27.0628 85.4875 26.8846 85.6657 26.6635C85.8436 26.4421 85.9839 26.1671 86.081 25.8488C86.1782 25.5303 86.2214 25.1746 86.2214 24.786C86.2214 24.3974 86.1782 24.0953 86.0971 23.8096L86.0918 23.8042ZM85.0614 24.7967C85.0614 25.0988 85.0346 25.3471 84.9807 25.5574C84.9268 25.7678 84.8403 25.9296 84.7486 26.0646C84.6568 26.1996 84.5275 26.2963 84.3925 26.3667C84.2414 26.4367 84.0903 26.4638 83.9071 26.4638C83.745 26.4638 83.5778 26.4367 83.4214 26.3667C83.2703 26.3128 83.1193 26.1885 82.9953 26.0374H83.0114V23.8903C83.1625 23.7124 83.3135 23.5613 83.4807 23.4642C83.6425 23.3671 83.8368 23.3131 84.0578 23.3131C84.3764 23.3131 84.6246 23.4263 84.8025 23.6585C84.9807 23.8903 85.0614 24.2788 85.0614 24.8021V24.7967Z" fill="white"/>
<path d="M88.061 20.3623H86.9175V27.2787H88.061V20.3623Z" fill="white"/>
<path d="M90.1003 20.5834C90.03 20.5291 89.96 20.4698 89.8682 20.4323C89.7768 20.3945 89.6743 20.3784 89.5771 20.3784C89.48 20.3784 89.3828 20.3945 89.3018 20.4323C89.2046 20.4752 89.14 20.5131 89.07 20.5834C89.0161 20.6534 88.9564 20.7234 88.9189 20.8152C88.8757 20.9123 88.865 21.0095 88.865 21.1066C88.865 21.2038 88.8811 21.3009 88.9189 21.3816C88.9457 21.4788 88.9996 21.5434 89.07 21.6138C89.14 21.6677 89.221 21.727 89.3018 21.7648C89.3828 21.8023 89.48 21.8188 89.5771 21.8188C89.6743 21.8188 89.771 21.8023 89.8682 21.7648C89.9493 21.7377 90.03 21.6838 90.1003 21.6138C90.1703 21.5434 90.2243 21.4627 90.2621 21.3816C90.3 21.3009 90.3161 21.2038 90.3161 21.1066C90.3161 21.0095 90.3 20.9123 90.2621 20.8152C90.2189 20.7181 90.165 20.6534 90.1003 20.5834Z" fill="white"/>
<path d="M89.0107 27.2785H90.1704V22.4985H89.0107V27.2785Z" fill="white"/>
<path d="M94.3407 26.0106C94.2707 26.0106 94.2003 26.0374 94.1464 26.0806C94.0925 26.1238 94.0225 26.1778 93.936 26.2317C93.8553 26.2856 93.7582 26.3449 93.6446 26.3828C93.5314 26.4206 93.3857 26.4531 93.2025 26.4531C93.0189 26.4531 92.8571 26.4099 92.706 26.3396C92.555 26.2696 92.431 26.1778 92.3339 26.0374C92.2367 25.9135 92.1557 25.7356 92.1017 25.5413C92.0478 25.3471 92.021 25.1149 92.021 24.8671C92.021 24.6188 92.0478 24.3974 92.091 24.2035C92.1342 24.0092 92.215 23.8474 92.3121 23.707C92.4257 23.5667 92.5443 23.4588 92.7007 23.3888C92.8518 23.3185 93.0189 23.2753 93.2239 23.2753C93.3857 23.2753 93.5153 23.2917 93.6232 23.3292C93.731 23.3671 93.8175 23.4103 93.8982 23.4535C93.9792 23.4967 94.0385 23.5342 94.1089 23.5774C94.1789 23.6206 94.2328 23.6313 94.2867 23.6313C94.3407 23.6313 94.4 23.6153 94.4271 23.5881C94.4539 23.5721 94.4971 23.5342 94.5243 23.4913L94.8264 23.0649C94.605 22.8438 94.3567 22.6928 94.0978 22.5685C93.8389 22.4446 93.5207 22.3906 93.1592 22.3906C92.7978 22.3906 92.4578 22.4606 92.1668 22.5849C91.8753 22.7088 91.6325 22.8763 91.4382 23.092C91.2439 23.3024 91.0928 23.5613 90.996 23.8635C90.8989 24.1656 90.845 24.4946 90.845 24.8399C90.845 25.2392 90.8878 25.5846 91.0067 25.8867C91.1253 26.1885 91.2817 26.4531 91.476 26.6581C91.6864 26.8685 91.9021 27.0303 92.1668 27.1435C92.4146 27.2567 92.7007 27.3053 92.9921 27.3053C93.17 27.3053 93.3371 27.2892 93.4992 27.2621C93.661 27.2353 93.8282 27.1921 93.9953 27.1381C94.1575 27.0681 94.3139 26.9871 94.465 26.8899C94.616 26.7928 94.756 26.6688 94.8803 26.5178L94.551 26.1024C94.5078 26.032 94.4378 25.9892 94.3407 25.9892H94.3514L94.3407 26.0106Z" fill="white"/>
<path d="M99.5793 23.8637C99.4657 23.5616 99.3039 23.2973 99.0936 23.0923C98.8832 22.8873 98.6404 22.7362 98.3493 22.6066C98.0579 22.4826 97.745 22.4287 97.3836 22.4287C97.0222 22.4287 96.6929 22.4987 96.4072 22.6066C96.1157 22.7198 95.8729 22.8819 95.6625 23.0923C95.4522 23.3026 95.2904 23.5616 95.1768 23.8637C95.0636 24.1659 95.015 24.5112 95.015 24.8834C95.015 25.2555 95.0689 25.6009 95.1768 25.903C95.2904 26.2051 95.4522 26.4534 95.6625 26.6744C95.8729 26.8955 96.105 27.0466 96.4072 27.1709C96.7089 27.2948 97.0275 27.3487 97.3836 27.3487C97.7397 27.3487 98.0579 27.2948 98.3493 27.1709C98.6404 27.0466 98.8832 26.8955 99.0936 26.6744C99.3039 26.4641 99.4657 26.2051 99.5793 25.903C99.6925 25.6009 99.7411 25.2555 99.7411 24.8834C99.7411 24.5112 99.6872 24.1659 99.5793 23.8637ZM98.5597 24.8834C98.5597 25.3905 98.4625 25.7898 98.2682 26.0541C98.0739 26.313 97.7825 26.4534 97.389 26.4534C96.995 26.4534 96.6875 26.3291 96.4932 26.0648C96.299 25.7898 96.2022 25.4012 96.2022 24.8941C96.2022 24.3869 96.299 23.9984 96.4932 23.7234C96.6875 23.4484 96.9897 23.308 97.389 23.308C97.7882 23.308 98.0793 23.4483 98.2682 23.7073C98.4572 23.9662 98.5597 24.3708 98.5597 24.878V24.8834Z" fill="white"/>
<path d="M101.559 26.367C101.516 26.2859 101.478 26.2159 101.408 26.1459C101.354 26.0756 101.268 26.0323 101.187 25.9948C101.106 25.957 101.009 25.9409 100.912 25.9409C100.815 25.9409 100.717 25.957 100.636 25.9948C100.556 26.0323 100.486 26.0756 100.415 26.1459C100.345 26.1998 100.302 26.2859 100.264 26.367C100.226 26.4481 100.21 26.5448 100.21 26.642C100.21 26.7391 100.237 26.8202 100.264 26.9173C100.307 26.9981 100.345 27.0684 100.415 27.1384C100.469 27.2084 100.556 27.2516 100.636 27.2895C100.717 27.3273 100.815 27.3434 100.912 27.3434C101.009 27.3434 101.106 27.3273 101.187 27.2895C101.268 27.2516 101.338 27.2084 101.408 27.1384C101.478 27.0845 101.521 26.9981 101.559 26.9173C101.597 26.8363 101.613 26.7391 101.613 26.642C101.613 26.5448 101.597 26.4481 101.559 26.367Z" fill="white"/>
</svg>
